<?xml version="1.0" encoding="UTF-8"?>
<svg id="Capa_1" data-name="Capa 1" xmlns="http://www.w3.org/2000/svg" viewBox="0 0 537.04 417.55">
  <defs>
    <style>
      .cls-1 {
        fill: none;
      }

      .cls-1, .cls-2 {
        stroke-width: 0px;
      }

      .cls-2 {
        fill: #ebecec;
      }
    </style>
  </defs>
  <rect class="cls-1" width="537.04" height="417.55"/>
  <g>
    <path class="cls-2" d="M244.71,146.84c1.83,5.41,4.57,5.73,8.05,3.35-.92-.28-1.91-.96-2.46-.69-2.6,1.25-3.49-.46-4.42-2.26-1.38-2.65-2.7-5.34-4.16-7.95-.5-.9-.33-1.26.4-1.88,1.3-1.11,2.28-2.64,3.68-3.59,1.8-1.22,1.03-3.35,2.26-4.88,1.68-2.08,4.45-1.25,6.12-3.16,4.01-4.59,9.39-8.25,10.12-14.98.21-1.89-.35-3.86-.45-5.79-.1-1.97.03-1.78,1.93-2.48.84-.31,1.47-1.55.49-2.68-2.05-2.36-3.12-4.58-.97-7.77,1.1-1.64-.12-4.1-2.17-4.87-3.24-1.22-2.46-3.77-2.06-5.86.35-1.8,1.01-4.32,4.06-3.04.09.04.22.08.28.04,3.58-2.41,8.52-2.07,11.52-5.59.93-1.1,1.95-1.73,3.32-2.13,3.27-.96,3.25-1.03,2.96,2.17-.03.38,0,.78.09,1.15.03.12.3.18.47.27.7-.17.5-.81.47-1.17-.21-2.42.44-3.62,3.26-3.32,1.79.19,2.99-1.57,4.41-2.56,3.51-2.47,7.71-2.15,11.65-2.23,3.21-.06,5.54-.92,7.49-3.45.91-1.17,1.27-3.46,3.49-2.92,2.17.53,2.33,2.62,2.78,4.44.27-.18.64-.29.7-.49.73-2.52,2.36-4.38,3.86-6.46,1.63-2.26,2.76-5.31,3.78-8.32,2.36,1.44,4.38,3.27,5.84,5.7.2.33.32.87.59.97,3.15,1.04,5.08,4.24,8.6,4.72,1.79.24,3.22,1.4,4.39,2.83,2.17,2.67,4.57,4.86,8.11,5.82,3.52.96,5.88,4.03,8.85,6.03,2.63,1.77,5.56.13,8.08,1.58.62.36,1.44.2,1.71,1.18.66,2.37,2.52,2.27,4.4,1.96.66-.11,1.31-.34,1.95-.57,4.4-1.58,4.92-1.28,5.69,3.22.41,2.38,3.99,5.11,7.04,5.02,2.48-.07,3.49.95,3.63,3.34.15,2.62.37,5.23,1,7.81.29,1.18.91,2.12,1.85,2.44,3.21,1.12,6.64,1.59,9.74,3.12.31.15.92.17,1.13-.03,2.9-2.68,5.02-1.39,7.31,1.03.74.78,2.13,2.3,3.77.87.11-.09.48-.08.55.02,2.81,3.57,7.06,1.45,10.48,2.6.44-2.1,2.79-3.14,5.33-1.1,3.54,2.85,6.97,1.4,10.53,1.25.76-.03.71-.49.74-.95.04-.48.16-1.03,0-1.45-1.93-4.75,1.98-6.36,4.62-8.63.71-.61,1.46-.42,2.02.3,1.3,1.69,3.15,2.18,5.12,2.37.92.09,1.97.39,2.32,1.02.75,1.35,1.46,1.75,2.88.99.87-.47,1.44.22,1.84.94,1.02,1.81,2.77,3.09,3.2,5.41.23,1.26,1.67,2.73,2.93,3.27,2.51,1.08,4.27,3.26,6.8,4.19,1.07.39,2.22,1.1,3.37.59,2.93-1.3,5.34-.08,7.36,1.73,3.43,3.08,7.32,5.01,11.76,6.07.88.21,2.54.26,2.29,1.59-.21,1.1-1.68,1.75-2.83,1.74-3.02-.03-6.17,1.32-9-1.09-1.17-1-3.04-.15-4.49-.9-.58-.3-1.21.2-1.24.85-.05.97.18,1.9,1.12,2.5.65.42,1.43.39,2.12.62,3.86,1.29,5.24,4.15,6.09,7.83.92,3.98,3.34,6.88,7.44,8.27,2.44.83,3.25,3,1.85,5.11-1.53,2.29-1.34,4.9-1.06,7.13.44,3.56,1.93,7,3.13,11.04-2.7-.69-5.65,1.2-7.84-1.92-1.01-1.44-1.57-.4-1.83.63-1.82,7.31-3.41,14.69-5.49,21.93-1.31,4.58-2.88,8.74-6.97,12.39-4.42,3.95-8.03,9.18-11.99,13.85-5.51,6.5-10.95,13.02-18.44,17.64-3.6,2.22-7.03,5.1-10.26,8.01-7.28,6.56-16.17,9.86-25.22,12.91-11.14,3.76-22.27,7.58-33.42,11.31-4.14,1.38-8.3,2.69-12.23,4.63-2.63,1.3-4.36,3.44-5.67,5.89-.5.94-.9,2.02-1.67,2.65-3.11,2.53-4.88,6.25-7.96,8.78-1.61,1.32-.93,2.46.27,3.46.75.63,1.81,1.06,1.31,2.24-.34.81-1.2,1.23-2.09,1.31-1.22.11-1.89-.44-2.22-1.71-.35-1.36-.44-2.97-2.63-3.03-2.01-.05-3.73-.58-3.1,2.64.27,1.36-.53,2.98-1.25,4.4-.91,1.81-.6,4.17-1.31,5.78-1.33,3.05,1.35,7.42-3.17,9.4-.87.38-1.11,1.95-1.13,3.18-.03,1.69-.09,3.36-2.51,3.5-1.02.06-1.17,1.21-1.22,2.09-.29,5.46-3.05,10.05-5.28,14.8-.81,1.72-.68,3.3-.17,4.77,1.7,4.94-.12,9.32-5.07,10.84-3.17.98-5.7,2.56-7.47,5.34-.81,1.27-.3,2.49.23,3.73.9,2.08,1.6,4.07-2.06,3.77-1.42-.12-1.68,1.21-1.88,2.22-.3,1.5-1.13,2.58-2.1,3.69-.64.72-1.46,1.08-1.99.58-1.69-1.61-4.08-1.54-5.76-1.39-5.17.48-7.1-3.34-10.38-5.92-4-3.15-3.77-7.86-6.31-11.36-.77-1.06.06-2.23.6-3.26.45-.87.74-1.86-.64-1.92-2.13-.09-3.26-1.67-4.6-2.85-1.71-1.51-3.3-1.67-5.28-.56-4,2.24-4.87,2.02-7.81-1.45-.31-.37-.69-.96-1.05-.97-4.86-.12-7.7-4.32-11.87-5.78-2.24-.78-4-.26-4.88,2.16-1.38,3.8-4.95,5.24-8.05,6.93-1.93,1.05-3.71-.86-4.89-2.31-1.08-1.32.29-2.47,1.11-3.54,1.94-2.53,4.74-4.47,5.62-7.95-2.04,0-3.86,1.4-5.59.62-2.04-.92-.83-3.45-1.8-4.89-1.57-2.35-.46-4.2.95-5.77,1.55-1.74,3.64-1.13,5.36-.1,1.77,1.06,3,.86,4.26-.75.8-1.02,1.76-2.3,2.89-2.62,3.28-.91,3.13-2.64,1.93-5.15-1.39-2.91-1.35-6.06-1.53-9.25-.15-2.5-.63-5.24-2.09-7.56-.24-.38-.43-.96-.33-1.36.49-1.91-.52-2.62-2.15-2.96-.83-.17-1.58-.6-1.38-1.55.16-.74.44-1.26,1.6-.63.67.37.2-1.5,1.05-1.92,3.41,2.64,8.87.83,10.2-3.37.3-.95.24-2.36,1.84-2.04,1.56.32.33,1.66.81,2.52,2.54-2.12,5.25-4.07,5.18-7.93,0-.44.31-.93.58-1.32,1.15-1.66,1.63-3.37,2.01-5.46.57-3.07,1.27-6.37,2.76-9.29,1.53-3,2.2-6.32,4.36-9.14,2.01-2.62.75-4.46-2.11-6.26-2.04-1.29-2.62-3.9-3-6.27-.52-3.15.24-6.39-1.13-9.54-.52-1.21-.55-3.29,1.58-4.04,1.14-.4.53-1.54.99-2.25-1.96,1.68-4.65,2.73-4.41,5.95.09,1.17.09,2.27.6,3.39,2.34,5.15.87,10.37-.24,15.42-.62,2.84-5.57,4.09-8.09,2.59-.74-.44-1.17-1.32-.35-1.88,1.8-1.23,2.96-3.94,5.9-2.83.06.02.22-.24.45-.49-1.59-1.28-3.24-1.41-5.51-.13.62-2.94.9-5.4,3.1-7.1-2.05-.4-2.27-.46-2.85,1.38-1.09,3.5-2.81,6.62-5.3,9.22-1.61,1.69-2.7,4.33-6.27,3.3-1.28-.37-.58,2.12.12,2.86,1.44,1.55.57,2.18-.78,2.63-.43.14-1.2-.19-1.58-.55-2.04-1.9-4.49-3.04-6.96-4.25-2.17-1.06-3.19-3.49-4.84-5.22-3.07-3.22-5.92-6.7-10.58-7.64-1.89-.38-3.6-.94-5.4-1.78-3.86-1.79-3.94-6.58-7.98-7.76.93-1.1,1.28-.56,1.67-.4,5.26,2.15,10.57-1.69,11.89-7.21,1.55-6.5-.1-12.11-3.26-17.28-2.56-4.19-.94-7.51.82-10.85,2.07-3.92,2.25-7.55-.3-10.98-1.1-1.49-2.24-2.95-3.33-4.44-2.59-3.57-2.22-4.89-.15-8.72,1.37-2.55,3.26-3.21,5.47-2.98,2.35.24,4.46-.91,6.87-.45,2.36.45,5.3-3.57,5.25-7.08-.06-4.37,2.96-7.16,4.92-11.23Z"/>
    <path class="cls-2" d="M252.76,265.81c-.51-3.24,1.02-6.22,2.47-9.16,1.83-3.72,11.76-4.72,14.49-1.54.32.38,1.05.84.67,1.47-.74,1.24-2.32,1.31-3.35,2.19-.86.74-.55,2.89-2.81,2.06-1.05-.39-2.48-.08-3.63.26-1.04.31-3.06.39-.98,2.5,1.33,1.35,1.56,3.67.93,5.6-.37,1.13-5.28,2.32-6.43,1.74-2.18-1.1-1.4-3.11-1.36-5.12Z"/>
  </g>
</svg>